<?xml version="1.0" encoding="UTF-8"?>
<svg width="28px" height="28px" viewBox="0 0 28 28" version="1.1" xmlns="http://www.w3.org/2000/svg" xmlns:xlink="http://www.w3.org/1999/xlink">
    <!-- Generator: Sketch 47.1 (45422) - http://www.bohemiancoding.com/sketch -->
    <title>Group 5</title>
    <desc>Created with Sketch.</desc>
    <defs></defs>
    <g id="Perfil-del-proyecto-+-TRL-+-IRL" stroke="none" stroke-width="1" fill="none" fill-rule="evenodd">
        <g id="project-terminado-copy" transform="translate(-208.000000, -132.000000)">
            <g id="Group-5" transform="translate(208.000000, 132.000000)">
                <g id="Group-4">
                    <circle id="Oval-5-Copy" fill="#009FFF" cx="14" cy="14" r="14"></circle>
                    <g id="Group-2" transform="translate(6.000000, 6.000000)" fill="#FFFFFF">
                        <path d="M1.16236166,12.9593658 L9.77752138,3.04126162 L9.77752138,3.04126162 C9.95860905,2.83278651 10.2744121,2.8105846 10.4828872,2.99167227 C10.48957,2.99747715 10.4960974,3.00345848 10.5024627,3.00960992 L13.0119019,5.43476239 L13.0119019,5.43476239 C13.2067044,5.62302193 13.2161448,5.93217699 13.0331919,6.13197171 L4.14564403,15.8376694 L4.14564403,15.8376694 C4.05093164,15.9411006 3.91713447,16 3.77689022,16 L1.49168938,16 L1.49168938,16 C1.21554701,16 0.99168938,15.7761424 0.99168938,15.5 C0.99168938,15.4963738 0.991728828,15.4927478 0.991807715,15.4891225 L1.03995756,13.2763765 L1.03995756,13.2763765 C1.04249741,13.1596566 1.08580133,13.047505 1.16236166,12.9593658 Z" id="Path-6"></path>
                        <path d="M11,1.9195734 L14.3691625,5.17668457 L16.0466356,3.46627204 L16.0466356,3.46627204 C16.2399902,3.26912074 16.2369123,2.95255321 16.039761,2.75919868 C16.0389668,2.75841982 16.0381701,2.75764361 16.0373707,2.75687007 L13.3339686,0.1406978 L13.3339686,0.1406978 C13.1355312,-0.0513366393 12.8189913,-0.0461460482 12.6269569,0.15229131 C12.6240607,0.155284003 12.6212021,0.158312763 12.6183817,0.16137688 L11,1.9195734 Z" id="Path-7"></path>
                    </g>
                </g>
            </g>
        </g>
    </g>
</svg>