<?xml version="1.0" encoding="UTF-8"?>
<svg width="18px" height="18px" viewBox="0 0 18 18" version="1.1" xmlns="http://www.w3.org/2000/svg" xmlns:xlink="http://www.w3.org/1999/xlink">
    <!-- Generator: Sketch 47.1 (45422) - http://www.bohemiancoding.com/sketch -->
    <title>Group 3</title>
    <desc>Created with Sketch.</desc>
    <defs></defs>
    <g id="z" stroke="none" stroke-width="1" fill="none" fill-rule="evenodd">
        <g id="M2.2---Projects-List" transform="translate(-884.000000, -223.000000)">
            <g id="Group-3" transform="translate(884.000000, 223.000000)">
                <g id="Group-3-Copy" fill="#E95454">
                    <rect id="Rectangle-9-Copy-12" x="0" y="0" width="18" height="18" rx="9"></rect>
                </g>
                <g id="Group" transform="translate(5.000000, 5.000000)" fill="#FFFFFF">
                    <path d="M4,2.74292128 L1.51742825,0.260349528 C1.17029555,-0.0867831759 0.607482232,-0.0867831759 0.260349528,0.260349528 C-0.0867831759,0.607482232 -0.0867831759,1.17029555 0.260349528,1.51742825 L2.74292128,4 L0.260349528,6.48257175 C-0.0867831759,6.82970445 -0.0867831759,7.39251777 0.260349528,7.73965047 C0.607482232,8.08678318 1.17029555,8.08678318 1.51742825,7.73965047 L4,5.25707872 L6.48257175,7.73965047 C6.82970445,8.08678318 7.39251777,8.08678318 7.73965047,7.73965047 C8.08678318,7.39251777 8.08678318,6.82970445 7.73965047,6.48257175 L5.25707872,4 L7.73965047,1.51742825 C8.08678318,1.17029555 8.08678318,0.607482232 7.73965047,0.260349528 C7.39251777,-0.0867831759 6.82970445,-0.0867831759 6.48257175,0.260349528 L4,2.74292128 Z" id="Combined-Shape"></path>
                </g>
            </g>
        </g>
    </g>
</svg>