<?xml version="1.0" encoding="UTF-8"?>
<svg width="9px" height="9px" viewBox="0 0 9 9" version="1.1" xmlns="http://www.w3.org/2000/svg" xmlns:xlink="http://www.w3.org/1999/xlink">
    <!-- Generator: Sketch 46.2 (44496) - http://www.bohemiancoding.com/sketch -->
    <title>Combined Shape</title>
    <desc>Created with Sketch.</desc>
    <defs></defs>
    <g id="Ajustes---tipificar-hipotesis" stroke="none" stroke-width="1" fill="none" fill-rule="evenodd">
        <g id="6-Loop-Copy-2" transform="translate(-689.000000, -324.000000)" fill="#E95454">
            <g id="Group" transform="translate(658.000000, 319.000000)">
                <path d="M35.5,8.08578644 L32.7071068,5.29289322 C32.3165825,4.90236893 31.6834175,4.90236893 31.2928932,5.29289322 C30.9023689,5.68341751 30.9023689,6.31658249 31.2928932,6.70710678 L34.0857864,9.5 L31.2928932,12.2928932 C30.9023689,12.6834175 30.9023689,13.3165825 31.2928932,13.7071068 C31.6834175,14.0976311 32.3165825,14.0976311 32.7071068,13.7071068 L35.5,10.9142136 L38.2928932,13.7071068 C38.6834175,14.0976311 39.3165825,14.0976311 39.7071068,13.7071068 C40.0976311,13.3165825 40.0976311,12.6834175 39.7071068,12.2928932 L36.9142136,9.5 L39.7071068,6.70710678 C40.0976311,6.31658249 40.0976311,5.68341751 39.7071068,5.29289322 C39.3165825,4.90236893 38.6834175,4.90236893 38.2928932,5.29289322 L35.5,8.08578644 Z" id="Combined-Shape"></path>
            </g>
        </g>
    </g>
</svg>