<?xml version="1.0" encoding="utf-8"?>
<!-- Generator: Adobe Illustrator 16.0.0, SVG Export Plug-In . SVG Version: 6.00 Build 0)  -->
<!DOCTYPE svg PUBLIC "-//W3C//DTD SVG 1.1//EN" "http://www.w3.org/Graphics/SVG/1.1/DTD/svg11.dtd">
<svg version="1.1" id="Layer_1" xmlns="http://www.w3.org/2000/svg" xmlns:xlink="http://www.w3.org/1999/xlink" x="0px" y="0px"
	 width="23px" height="22px" viewBox="0 0 23 22" enable-background="new 0 0 23 22" xml:space="preserve">
<title>Group 2</title>
<desc>Created with Sketch.</desc>
<g>
	<path fill="#FFFFFF" d="M21,5h-2V1.5C19,0.671,18.328,0,17.5,0h-12C4.672,0,4,0.671,4,1.5V5H2C0.896,5,0,5.896,0,7v13
		c0,1.104,0.896,2,2,2h19c1.104,0,2-0.896,2-2V7C23,5.896,22.104,5,21,5z M7,3h9v2H7V3z"/>
	<g id="Path-4">
		<g>
			<rect x="4.5" y="8" fill="#29244E" width="14.545" height="3"/>
		</g>
	</g>
</g>
</svg>
