<?xml version="1.0" encoding="UTF-8"?>
<svg width="18px" height="18px" viewBox="0 0 18 18" version="1.1" xmlns="http://www.w3.org/2000/svg" xmlns:xlink="http://www.w3.org/1999/xlink">
    <!-- Generator: Sketch 47.1 (45422) - http://www.bohemiancoding.com/sketch -->
    <title>Group 2</title>
    <desc>Created with Sketch.</desc>
    <defs></defs>
    <g id="z" stroke="none" stroke-width="1" fill="none" fill-rule="evenodd">
        <g id="M2.2---Projects-List" transform="translate(-705.000000, -223.000000)">
            <g id="Group-2" transform="translate(705.000000, 223.000000)">
                <g id="Group-3-Copy" fill="#11C26F">
                    <rect id="Rectangle-9-Copy-12" x="0" y="0" width="18" height="18" rx="9"></rect>
                </g>
                <path d="M7.50618608,13.0353619 C7.52631944,13.0184162 7.54589538,13.0004671 7.56484788,12.9815145 L13.9815145,6.56484788 C14.3394952,6.20686728 14.3394952,5.62646605 13.9815145,5.26848545 C13.6235339,4.91050485 13.0431327,4.91050485 12.6851521,5.26848545 L6.625,11.3286376 L4.56484788,9.26848545 C4.20686728,8.91050485 3.62646605,8.91050485 3.26848545,9.26848545 C2.91050485,9.62646605 2.91050485,10.2068673 3.26848545,10.5648479 L6.01848545,13.3148479 C6.37646605,13.6728285 6.95686728,13.6728285 7.31484788,13.3148479 C7.39789164,13.2318041 7.46167104,13.136791 7.50618608,13.0353619 Z" id="Combined-Shape-Copy" fill="#FFFFFF"></path>
            </g>
        </g>
    </g>
</svg>