<?xml version="1.0" encoding="UTF-8"?>
<svg width="9px" height="9px" viewBox="0 0 9 9" version="1.1" xmlns="http://www.w3.org/2000/svg" xmlns:xlink="http://www.w3.org/1999/xlink">
    <!-- Generator: Sketch 46.2 (44496) - http://www.bohemiancoding.com/sketch -->
    <title>Group 2</title>
    <desc>Created with Sketch.</desc>
    <defs></defs>
    <g id="Ajustes---tipificar-hipotesis" stroke="none" stroke-width="1" fill="none" fill-rule="evenodd">
        <g id="6-Loop-Copy-2" transform="translate(-705.000000, -324.000000)" fill="#009FFF">
            <g id="Group" transform="translate(658.000000, 319.000000)">
                <g id="Group-2" transform="translate(47.000000, 4.000000)">
                    <path d="M0.157115164,8.02212346 L5.19888846,2.5670631 L5.19888846,2.5670631 C5.38516775,2.36551402 5.69908813,2.35178902 5.90224695,2.53631137 L7.11615866,3.63886668 L7.11615866,3.63886668 C7.32057133,3.82452786 7.33577241,4.14074519 7.15011124,4.34515786 C7.14618564,4.34947994 7.14218463,4.35373293 7.13811006,4.35791486 L1.96701953,9.66526645 L1.96701953,9.66526645 C1.87290527,9.76186067 1.74376149,9.81634015 1.60889883,9.81634015 L0.502196531,9.81634015 L0.502196531,9.81634015 C0.226054156,9.81634015 0.00219653052,9.59248252 0.00219653052,9.31634015 C0.00219653052,9.31248192 0.0022411884,9.30862381 0.00233049519,9.30476661 L0.0244383191,8.34992007 L0.0244383191,8.34992007 C0.0272579071,8.22814084 0.0744365371,8.11157946 0.157115164,8.02212346 Z" id="Path-6"></path>
                    <path d="M6,1.91735895 L7.82743565,3.64999528 L8.5655562,2.91187472 L8.5655562,2.91187472 C8.76081835,2.71661257 8.76081835,2.40003008 8.5655562,2.20476794 C8.56247901,2.20169074 8.55936177,2.19865385 8.55620528,2.19565804 L7.43081965,1.12755844 L7.43081965,1.12755844 C7.23052625,0.937460665 6.91405167,0.945725855 6.72395389,1.14601926 C6.72331411,1.14669335 6.72267621,1.14736923 6.7220402,1.14804688 L6,1.91735895 Z" id="Path-7"></path>
                </g>
            </g>
        </g>
    </g>
</svg>