<?xml version="1.0" encoding="UTF-8"?>
<svg width="7px" height="11px" viewBox="0 0 7 11" version="1.1" xmlns="http://www.w3.org/2000/svg" xmlns:xlink="http://www.w3.org/1999/xlink">
    <!-- Generator: Sketch 46.2 (44496) - http://www.bohemiancoding.com/sketch -->
    <title>? copy 2</title>
    <desc>Created with Sketch.</desc>
    <defs></defs>
    <g id="Ajustes---tipificar-hipotesis" stroke="none" stroke-width="1" fill="none" fill-rule="evenodd">
        <g id="6-Loop-Copy-2" transform="translate(-192.000000, -116.000000)" fill="#FFFFFF">
            <g id="Group-Copy-4" transform="translate(163.000000, 112.000000)">
                <path d="M30.8496313,10.8367852 L30.8496313,10.3298492 C30.8496313,9.89141589 30.9432536,9.51007597 31.1305012,9.18581801 C31.3177487,8.86156004 31.6602696,8.51675569 32.1580741,8.1513946 C32.6376105,7.80886858 32.9538715,7.53028493 33.1068664,7.31563529 C33.2598614,7.10098565 33.3363577,6.86122104 33.3363577,6.59633425 C33.3363577,6.29947836 33.226751,6.07341458 33.0075344,5.91813612 C32.7883177,5.76285766 32.4823324,5.68521959 32.0895693,5.68521959 C31.4045172,5.68521959 30.6235696,5.9089999 29.746703,6.35656723 L29,4.85631077 C30.018444,4.28543407 31.0985265,4 32.2402799,4 C33.1810847,4 33.928922,4.22606378 34.4838142,4.67819813 C35.0387063,5.13033247 35.3161482,5.73316923 35.3161482,6.48672647 C35.3161482,6.98909797 35.2019746,7.42295775 34.9736239,7.78831884 C34.7452732,8.15367992 34.3114135,8.56470498 33.6720315,9.02140634 C33.2335982,9.34566431 32.9561563,9.59227934 32.8396975,9.76125885 C32.7232386,9.93023835 32.6650101,10.1517352 32.6650101,10.425756 L32.6650101,10.8367852 L30.8496313,10.8367852 Z M30.6304157,13.1796514 C30.6304157,12.7960223 30.733172,12.5060213 30.9386876,12.3096397 C31.1442032,12.1132581 31.4433381,12.0150688 31.8361013,12.0150688 C32.2151634,12.0150688 32.5085896,12.1155416 32.7163887,12.3164902 C32.9241879,12.5174388 33.0280859,12.8051563 33.0280859,13.1796514 C33.0280859,13.5404455 32.9230461,13.8247378 32.7129635,14.032537 C32.5028809,14.2403361 32.2105964,14.3442341 31.8361013,14.3442341 C31.4524721,14.3442341 31.1556207,14.2426195 30.9455381,14.0393874 C30.7354554,13.8361553 30.6304157,13.5495795 30.6304157,13.1796514 Z" id="?-copy-2"></path>
            </g>
        </g>
    </g>
</svg>