<?xml version="1.0" encoding="UTF-8"?>
<svg width="28px" height="28px" viewBox="0 0 28 28" version="1.1" xmlns="http://www.w3.org/2000/svg" xmlns:xlink="http://www.w3.org/1999/xlink">
    <!-- Generator: Sketch 47.1 (45422) - http://www.bohemiancoding.com/sketch -->
    <title>Group 6</title>
    <desc>Created with Sketch.</desc>
    <defs></defs>
    <g id="Perfil-del-proyecto-+-TRL-+-IRL" stroke="none" stroke-width="1" fill="none" fill-rule="evenodd">
        <g id="project-terminado-copy" transform="translate(-611.000000, -1779.000000)">
            <g id="Group-6" transform="translate(611.000000, 1779.000000)">
                <circle id="Oval-5" fill="#FFC028" cx="14" cy="14" r="14"></circle>
                <path d="M13,19.5461493 L13,7.13043905 C13,6.5061148 13.4477153,6 14,6 C14.5522847,6 15,6.5061148 15,7.13043905 L15,19.4286516 L21.1032147,13.3254369 C21.5371306,12.891521 22.2406472,12.891521 22.6745631,13.3254369 C23.108479,13.7593528 23.108479,14.4628694 22.6745631,14.8967853 L14.8967853,22.6745631 C14.6649299,22.9064185 14.3561003,23.014386 14.0525562,22.9984656 C14.0351515,22.9994843 14.017629,23 14,23 C13.9954802,23 13.9909674,22.9999661 13.9864618,22.9998985 C13.718558,23.0036513 13.449467,22.9033177 13.245047,22.6988977 L6.30110234,15.754953 C5.89963255,15.3534832 5.89963255,14.7025721 6.30110234,14.3011023 C6.70257212,13.8996326 7.35348325,13.8996326 7.75495303,14.3011023 L13,19.5461493 Z" id="Combined-Shape-Copy-2" stroke="#FFFFFF" fill="#FFFFFF" stroke-linecap="round"></path>
            </g>
        </g>
    </g>
</svg>