<?xml version="1.0" encoding="UTF-8"?>
<svg width="29px" height="29px" viewBox="0 0 29 29" version="1.1" xmlns="http://www.w3.org/2000/svg" xmlns:xlink="http://www.w3.org/1999/xlink">
    <!-- Generator: Sketch 47.1 (45422) - http://www.bohemiancoding.com/sketch -->
    <title>Group Copy 3</title>
    <desc>Created with Sketch.</desc>
    <defs></defs>
    <g id="Pricing" stroke="none" stroke-width="1" fill="none" fill-rule="evenodd">
        <g id="Member-list" transform="translate(-1018.000000, -435.000000)" fill="#E95454">
            <g id="Group-Copy-3" transform="translate(1018.000000, 435.000000)">
                <path d="M14.5,9.94308963 L5.50067741,0.943767038 C4.24232135,-0.314589013 2.20212309,-0.314589013 0.943767038,0.943767038 C-0.314589013,2.20212309 -0.314589013,4.24232135 0.943767038,5.50067741 L9.94308963,14.5 L0.943767038,23.4993226 C-0.314589013,24.7576786 -0.314589013,26.7978769 0.943767038,28.056233 C2.20212309,29.314589 4.24232135,29.314589 5.50067741,28.056233 L14.5,19.0569104 L23.4993226,28.056233 C24.7576786,29.314589 26.7978769,29.314589 28.056233,28.056233 C29.314589,26.7978769 29.314589,24.7576786 28.056233,23.4993226 L19.0569104,14.5 L28.056233,5.50067741 C29.314589,4.24232135 29.314589,2.20212309 28.056233,0.943767038 C26.7978769,-0.314589013 24.7576786,-0.314589013 23.4993226,0.943767038 L14.5,9.94308963 Z" id="Combined-Shape"></path>
            </g>
        </g>
    </g>
</svg>