<?xml version="1.0" encoding="UTF-8"?>
<svg width="39px" height="39px" viewBox="0 0 39 39" version="1.1" xmlns="http://www.w3.org/2000/svg" xmlns:xlink="http://www.w3.org/1999/xlink">
    <!-- Generator: Sketch 47.1 (45422) - http://www.bohemiancoding.com/sketch -->
    <title>Group</title>
    <desc>Created with Sketch.</desc>
    <defs></defs>
    <g id="Pricing" stroke="none" stroke-width="1" fill="none" fill-rule="evenodd">
        <g id="pago-aprobado-" transform="translate(-491.000000, -223.000000)">
            <g id="Group" transform="translate(491.000000, 223.000000)">
                <g id="Group-3-Copy" fill="#11C26F">
                    <rect id="Rectangle-9-Copy-12" x="0" y="0" width="39" height="39" rx="19.5"></rect>
                </g>
                <path d="M18.0109975,28.2850878 C18.0467901,28.2549621 18.0815918,28.2230525 18.1152851,28.1893592 L29.5226925,16.7819518 C30.1591025,16.1455418 30.1591025,15.1137174 29.5226925,14.4773075 C28.8862826,13.8408975 27.8544582,13.8408975 27.2180482,14.4773075 L16.4444444,25.2509112 L12.7819518,21.5884186 C12.1455418,20.9520086 11.1137174,20.9520086 10.4773075,21.5884186 C9.84089751,22.2248285 9.84089751,23.2566529 10.4773075,23.8930629 L15.3661964,28.7819518 C16.0026063,29.4183617 17.0344307,29.4183617 17.6708407,28.7819518 C17.818474,28.6343185 17.9318596,28.4654063 18.0109975,28.2850878 Z" id="Combined-Shape-Copy" fill="#FFFFFF"></path>
            </g>
        </g>
    </g>
</svg>