<?xml version="1.0" encoding="UTF-8"?>
<svg width="21px" height="20px" viewBox="0 0 21 20" version="1.1" xmlns="http://www.w3.org/2000/svg" xmlns:xlink="http://www.w3.org/1999/xlink">
    <!-- Generator: Sketch 47.1 (45422) - http://www.bohemiancoding.com/sketch -->
    <title>Group 2 Copy</title>
    <desc>Created with Sketch.</desc>
    <defs></defs>
    <g id="Ajustes---tipificar-hipotesis" stroke="none" stroke-width="1" fill="none" fill-rule="evenodd">
        <g id="hover--edit-answer" transform="translate(-881.000000, -147.000000)" fill="#FFFFFF">
            <g id="Group-2-Copy" transform="translate(881.000000, 147.000000)">
                <path d="M1.18973651,16.2861032 L12.8307479,3.9154127 L12.8307479,3.9154127 C13.0164391,3.71808202 13.3255223,3.7045728 13.5277221,3.88494977 L17.0891121,7.06196867 L17.0891121,7.06196867 C17.2951774,7.24579389 17.3132065,7.56186259 17.1293813,7.76792787 C17.123504,7.77451627 17.1174532,7.78094784 17.1112352,7.78721582 L5.1426823,19.852133 L5.1426823,19.852133 C5.04880148,19.9467697 4.92101725,20 4.78771416,20 L1.48618024,20 L1.48618024,20 C1.21003786,20 0.986180238,19.7761424 0.986180238,19.5 C0.986180238,19.4960718 0.986226531,19.4921436 0.986319108,19.4882165 L1.05400463,16.616971 L1.05400463,16.616971 C1.0569101,16.4937197 1.10524861,16.375887 1.18973651,16.2861032 Z" id="Path-6"></path>
                <path d="M14,3.09146659 L18.042995,7 L20.1264515,4.87563207 L20.1264515,4.87563207 C20.3198061,4.67848077 20.3167282,4.36191324 20.1195769,4.16855871 C20.1187827,4.16777985 20.117986,4.16700365 20.1171866,4.1662301 L16.7270834,0.885514321 L16.7270834,0.885514321 C16.528646,0.693479881 16.2121061,0.698670472 16.0200717,0.897107831 C16.0171755,0.900100523 16.0143169,0.903129283 16.0114965,0.9061934 L14,3.09146659 Z" id="Path-7"></path>
            </g>
        </g>
    </g>
</svg>