<?xml version="1.0" encoding="UTF-8"?>
<svg width="53px" height="11px" viewBox="0 0 53 11" version="1.1" xmlns="http://www.w3.org/2000/svg" xmlns:xlink="http://www.w3.org/1999/xlink">
    <!-- Generator: Sketch 46.2 (44496) - http://www.bohemiancoding.com/sketch -->
    <title>Group</title>
    <desc>Created with Sketch.</desc>
    <defs></defs>
    <g id="Symbols" stroke="none" stroke-width="1" fill="none" fill-rule="evenodd">
        <g id="User-–-Top" transform="translate(-574.000000, -26.000000)">
            <g id="Group" transform="translate(562.000000, 0.000000)">
                <path d="M17.6171875,36.5390625 C16.2968684,36.5390625 15.160161,36.0546923 14.2070312,35.0859375 C13.2539015,34.1171827 12.7773438,32.9648504 12.7773438,31.6289062 C12.7773438,30.2695245 13.2578077,29.1093798 14.21875,28.1484375 C15.1796923,27.1874952 16.339837,26.7070312 17.6992188,26.7070312 C19.0586005,26.7070312 20.2167921,27.1894483 21.1738281,28.1542969 C22.1308642,29.1191454 22.609375,30.2890556 22.609375,31.6640625 C22.609375,33.0156318 22.1230517,34.1660109 21.1503906,35.1152344 C20.1777295,36.0644579 19.0000069,36.5390625 17.6171875,36.5390625 Z M31.4921875,36.5390625 C30.1718684,36.5390625 29.035161,36.0546923 28.0820312,35.0859375 C27.1289015,34.1171827 26.6523438,32.9648504 26.6523438,31.6289062 C26.6523438,30.2695245 27.1328077,29.1093798 28.09375,28.1484375 C29.0546923,27.1874952 30.214837,26.7070312 31.5742188,26.7070312 C32.9336005,26.7070312 34.0917921,27.1894483 35.0488281,28.1542969 C36.0058642,29.1191454 36.484375,30.2890556 36.484375,31.6640625 C36.484375,33.0156318 35.9980517,34.1660109 35.0253906,35.1152344 C34.0527295,36.0644579 32.8750069,36.5390625 31.4921875,36.5390625 Z M45.3671875,36.5390625 C44.0468684,36.5390625 42.910161,36.0546923 41.9570312,35.0859375 C41.0039015,34.1171827 40.5273438,32.9648504 40.5273438,31.6289062 C40.5273438,30.2695245 41.0078077,29.1093798 41.96875,28.1484375 C42.9296923,27.1874952 44.089837,26.7070312 45.4492188,26.7070312 C46.8086005,26.7070312 47.9667921,27.1894483 48.9238281,28.1542969 C49.8808642,29.1191454 50.359375,30.2890556 50.359375,31.6640625 C50.359375,33.0156318 49.8730517,34.1660109 48.9003906,35.1152344 C47.9277295,36.0644579 46.7500069,36.5390625 45.3671875,36.5390625 Z M59.2421875,36.5390625 C57.9218684,36.5390625 56.785161,36.0546923 55.8320312,35.0859375 C54.8789015,34.1171827 54.4023438,32.9648504 54.4023438,31.6289062 C54.4023438,30.2695245 54.8828077,29.1093798 55.84375,28.1484375 C56.8046923,27.1874952 57.964837,26.7070312 59.3242188,26.7070312 C60.6836005,26.7070312 61.8417921,27.1894483 62.7988281,28.1542969 C63.7558642,29.1191454 64.234375,30.2890556 64.234375,31.6640625 C64.234375,33.0156318 63.7480517,34.1660109 62.7753906,35.1152344 C61.8027295,36.0644579 60.6250069,36.5390625 59.2421875,36.5390625 Z" id="●●●●" fill="#FFFFFF"></path>
                <path d="M61.0454311,31.5 L17,31.5" id="Path-4" stroke="#FFFFFF" stroke-width="3" fill="#D8D8D8"></path>
            </g>
        </g>
    </g>
</svg>