<?xml version="1.0" encoding="UTF-8" standalone="no"?>
<svg width="216px" height="50px" viewBox="0 0 216 50" version="1.1" xmlns="http://www.w3.org/2000/svg" xmlns:xlink="http://www.w3.org/1999/xlink">
    <!-- Generator: Sketch 39.1 (31720) - http://www.bohemiancoding.com/sketch -->
    <title>Group 3</title>
    <desc>Created with Sketch.</desc>
    <defs></defs>
    <g id="-" stroke="none" stroke-width="1" fill="none" fill-rule="evenodd">
        <g id="0.1-Register" transform="translate(-145.000000, -103.000000)">
            <g id="Group-3" transform="translate(145.000000, 103.000000)">
                <g id="Group">
                    <g id="Group-Copy" transform="translate(16.500000, 11.500000) rotate(-90.000000) translate(-16.500000, -11.500000) translate(5.000000, -5.000000)" fill="#FFFF7C">
                        <path d="M11.0833333,16.5 C11.0833333,19.5193167 13.5344125,21.9695667 16.5693986,22 L22.1666667,22 L22.1666667,33 L16.625,33 C7.44319722,33 0,25.6125833 0,16.5 C0,7.38723333 7.44319722,0 16.625,0 L22.1666667,0 L22.1666667,11 L16.5764181,11 C13.5382917,11.0267667 11.0833333,13.4784833 11.0833333,16.5 L11.0833333,16.5 Z" id="Path"></path>
                    </g>
                    <path d="M11.248,47.32 C10.9599986,47.8800028 10.4920032,48.3479981 9.844,48.724 C9.19599676,49.1000019 8.44000432,49.288 7.576,49.288 C6.63199528,49.288 5.81200348,49.1400015 5.116,48.844 C4.41999652,48.5479985 3.84000232,48.1240028 3.376,47.572 C2.91199768,47.0199972 2.56400116,46.3560039 2.332,45.58 C2.09999884,44.8039961 1.984,43.9440047 1.984,43 C1.984,40.9679898 2.47999504,39.4120054 3.472,38.332 C4.46400496,37.2519946 5.81599144,36.712 7.528,36.712 C8.31200392,36.712 9.01199692,36.7799993 9.628,36.916 C10.2440031,37.0520007 10.7679978,37.2319989 11.2,37.456 C11.1519998,37.9840026 11.0640006,38.5759967 10.936,39.232 C10.8079994,39.8880033 10.648001,40.4319978 10.456,40.864 L9.808,40.864 L8.8,38.008 C8.68799944,37.9279996 8.56000072,37.8680002 8.416,37.828 C8.27199928,37.7879998 8.03200168,37.768 7.696,37.768 C6.60799456,37.768 5.76800296,38.163996 5.176,38.956 C4.58399704,39.748004 4.288,41.0879906 4.288,42.976 C4.288,43.584003 4.37199916,44.1759971 4.54,44.752 C4.70800084,45.3280029 4.96399828,45.8439977 5.308,46.3 C5.65200172,46.7560023 6.0839974,47.1199986 6.604,47.392 C7.1240026,47.6640014 7.72799656,47.8 8.416,47.8 C8.9760028,47.8 9.46399792,47.7200008 9.88,47.56 C10.2960021,47.3999992 10.6479986,47.2080011 10.936,46.984 L11.248,47.32 Z M25.6239999,45.856 C25.6239999,46.2080018 25.6319998,46.5119987 25.6479999,46.768 C25.664,47.0240013 25.6799998,47.2959986 25.6959999,47.584 L27.3519999,47.824 L27.3519999,48.328 C26.9519979,48.536001 26.5080023,48.7199992 26.0199999,48.88 C25.5319975,49.0400008 25.0640021,49.1599996 24.6159999,49.24 L24.0159999,49.24 C23.8559991,48.8719982 23.7600001,48.4680022 23.7279999,48.028 C23.6959997,47.5879978 23.672,47.1040026 23.6559999,46.576 L23.5359999,46.576 C23.4719996,46.8960016 23.3480008,47.2199984 23.1639999,47.548 C22.979999,47.8760016 22.7400014,48.1679987 22.4439999,48.424 C22.1479984,48.6800013 21.8000019,48.8879992 21.3999999,49.048 C20.9999979,49.2080008 20.5440025,49.288 20.0319999,49.288 C19.055995,49.288 18.260003,48.992003 17.6439999,48.4 C17.0279968,47.807997 16.7199999,47.0320048 16.7199999,46.072 C16.7199999,45.3359963 16.8679984,44.7320024 17.1639999,44.26 C17.4600014,43.7879976 17.895997,43.4160014 18.4719999,43.144 C19.0480028,42.8719986 19.7599957,42.6760006 20.6079999,42.556 C21.4560041,42.4359994 22.4399943,42.3440003 23.5599999,42.28 C23.6240002,41.5919966 23.644,40.9720028 23.6199999,40.42 C23.5959998,39.8679972 23.5080007,39.396002 23.3559999,39.004 C23.2039991,38.611998 22.9800014,38.3080011 22.6839999,38.092 C22.3879984,37.8759989 22.0000023,37.768 21.5199999,37.768 C21.2959988,37.768 21.0440013,37.7799999 20.7639999,37.804 C20.4839985,37.8280001 20.2080013,37.8959994 19.9359999,38.008 L18.8079999,40.888 L18.1839999,40.888 C18.0239991,40.4079976 17.8840005,39.9120026 17.7639999,39.4 C17.6439993,38.8879974 17.5680001,38.3840025 17.5359999,37.888 C18.1440029,37.5199982 18.8199962,37.232001 19.5639999,37.024 C20.3080036,36.815999 21.1359953,36.712 22.0479999,36.712 C22.864004,36.712 23.5159975,36.8279988 24.0039999,37.06 C24.4920023,37.2920012 24.8639986,37.5919982 25.1199999,37.96 C25.3760012,38.3280018 25.5439995,38.7359978 25.6239999,39.184 C25.7040003,39.6320022 25.7439999,40.0799978 25.7439999,40.528 C25.7439999,41.4880048 25.7240001,42.4119956 25.6839999,43.3 C25.6439997,44.1880044 25.6239999,45.0399959 25.6239999,45.856 L25.6239999,45.856 Z M20.9919999,47.8 C21.3920019,47.8 21.7439984,47.7200008 22.0479999,47.56 C22.3520014,47.3999992 22.6079989,47.2080011 22.8159999,46.984 C23.0240009,46.7599989 23.1919993,46.5320012 23.3199999,46.3 C23.4480005,46.0679988 23.5359997,45.8720008 23.5839999,45.712 L23.5839999,43.192 C22.6559953,43.192 21.8960029,43.2399995 21.3039999,43.336 C20.7119969,43.4320005 20.2480016,43.583999 19.9119999,43.792 C19.5759982,44.000001 19.3440005,44.2599984 19.2159999,44.572 C19.0879993,44.8840016 19.0239999,45.239998 19.0239999,45.64 C19.0239999,46.3280034 19.1999981,46.8599981 19.5519999,47.236 C19.9040017,47.6120019 20.3839969,47.8 20.9919999,47.8 L20.9919999,47.8 Z M45.3519998,49 L40.1919998,49 L40.1919998,48.4 C40.624002,48.1759989 41.0959972,47.9840008 41.6079998,47.824 L41.6079998,42.136 C41.6079998,40.9199939 41.4320016,39.9600035 41.0799998,39.256 C40.727998,38.5519965 40.0880044,38.2 39.1599998,38.2 C38.7599978,38.2 38.3880015,38.2719993 38.0439998,38.416 C37.6999981,38.5600007 37.3960011,38.7559988 37.1319998,39.004 C36.8679985,39.2520012 36.6400008,39.5319984 36.4479998,39.844 C36.2559988,40.1560016 36.1040004,40.4799983 35.9919998,40.816 L35.9919998,47.824 C36.4880023,47.9200005 36.9679975,48.1119986 37.4319998,48.4 L37.4319998,49 L32.2479998,49 L32.2479998,48.4 C32.6480018,48.191999 33.1759965,48.0000009 33.8319998,47.824 L33.8319998,38.392 L32.2479998,38.2 L32.2479998,37.576 C32.6640019,37.3999991 33.1439971,37.2400007 33.6879998,37.096 C34.2320025,36.9519993 34.7999968,36.8240006 35.3919998,36.712 L35.9919998,36.712 L35.9919998,39.4 L36.0159998,39.4 C36.3520015,38.6639963 36.8359966,38.0320026 37.4679998,37.504 C38.100003,36.9759974 38.8639953,36.712 39.7599998,36.712 C40.400003,36.712 40.9719973,36.7879992 41.4759998,36.94 C41.9800023,37.0920008 42.3999981,37.3599981 42.7359998,37.744 C43.0720015,38.1280019 43.3279989,38.6439968 43.5039998,39.292 C43.6800007,39.9400032 43.7679998,40.759995 43.7679998,41.752 L43.7679998,47.824 C44.408003,47.9360006 44.9359977,48.1279986 45.3519998,48.4 L45.3519998,49 Z M50.3439997,43 C50.3439997,41.991995 50.4759984,41.1000039 50.7399997,40.324 C51.004001,39.5479961 51.3839972,38.8920027 51.8799997,38.356 C52.3760022,37.8199973 52.9719962,37.4120014 53.6679997,37.132 C54.3640032,36.8519986 55.1359955,36.712 55.9839997,36.712 C56.9760047,36.712 57.8319961,36.8639985 58.5519997,37.168 C59.2720033,37.4720015 59.8599974,37.8999972 60.3159997,38.452 C60.772002,39.0040028 61.1079986,39.6639962 61.3239997,40.432 C61.5400008,41.2000038 61.6479997,42.0559953 61.6479997,43 C61.6479997,45.0160101 61.1360048,46.5679946 60.1119997,47.656 C59.0879946,48.7440054 57.7120084,49.288 55.9839997,49.288 C55.0239949,49.288 54.1920032,49.1400015 53.4879997,48.844 C52.7839962,48.5479985 52.200002,48.1240028 51.7359997,47.572 C51.2719974,47.0199972 50.9240009,46.3560039 50.6919997,45.58 C50.4599986,44.8039961 50.3439997,43.9440047 50.3439997,43 L50.3439997,43 Z M52.6479997,43 C52.6479997,43.7200036 52.715999,44.3999968 52.8519997,45.04 C52.9880004,45.6800032 53.2039982,46.2359976 53.4999997,46.708 C53.7960012,47.1800024 54.1839973,47.5519986 54.6639997,47.824 C55.1440021,48.0960014 55.7199964,48.232 56.3919997,48.232 C57.256004,48.232 57.963997,47.8080042 58.5159997,46.96 C59.0680025,46.1119958 59.3439997,44.792009 59.3439997,43 C59.3439997,42.2639963 59.2760004,41.5800032 59.1399997,40.948 C59.003999,40.3159968 58.7920012,39.7640024 58.5039997,39.292 C58.2159983,38.8199976 57.848002,38.4480014 57.3999997,38.176 C56.9519975,37.9039986 56.4160028,37.768 55.7919997,37.768 C54.847995,37.768 54.0880026,38.1919958 53.5119997,39.04 C52.9359968,39.8880042 52.6479997,41.207991 52.6479997,43 L52.6479997,43 Z M68.0799996,44.248 C68.0799996,43.239995 68.1039994,42.2520048 68.1519996,41.284 C68.1999999,40.3159952 68.2239996,39.3520048 68.2239996,38.392 L66.6399996,38.2 L66.6399996,37.576 C67.1520022,37.383999 67.6759969,37.2160007 68.2119996,37.072 C68.7480023,36.9279993 69.2719971,36.8080005 69.7839996,36.712 L70.3839996,36.712 C70.3839996,37.912006 70.3599999,39.1039941 70.3119996,40.288 C70.2639994,41.4720059 70.2399996,42.6479942 70.2399996,43.816 C70.2399996,44.4400031 70.2759993,44.9999975 70.3479996,45.496 C70.42,45.9920025 70.5479987,46.4079983 70.7319996,46.744 C70.9160005,47.0800017 71.167998,47.3399991 71.4879996,47.524 C71.8080012,47.7080009 72.2159971,47.8 72.7119996,47.8 C73.4320032,47.8 74.0359972,47.5400026 74.5239996,47.02 C75.0120021,46.4999974 75.3919983,45.8240042 75.6639996,44.992 L75.6639996,38.392 L74.1039996,38.2 L74.1039996,37.576 C74.6000021,37.383999 75.1159969,37.2160007 75.6519996,37.072 C76.1880023,36.9279993 76.7119971,36.8080005 77.2239996,36.712 L77.8239996,36.712 L77.8239996,47.632 L79.4079996,47.824 L79.4079996,48.328 C78.9439973,48.536001 78.476002,48.7199992 78.0039996,48.88 C77.5319973,49.0400008 77.0400022,49.1599996 76.5279996,49.24 L75.9279996,49.24 L75.7599996,46.384 L75.6639996,46.384 C75.5839992,46.7200017 75.4440006,47.0599983 75.2439996,47.404 C75.0439986,47.7480017 74.7840012,48.0599986 74.4639996,48.34 C74.143998,48.6200014 73.7800017,48.8479991 73.3719996,49.024 C72.9639976,49.2000009 72.520002,49.288 72.0399996,49.288 C71.3999964,49.288 70.8360021,49.2120008 70.3479996,49.06 C69.8599972,48.9079992 69.4480013,48.6400019 69.1119996,48.256 C68.7759979,47.8719981 68.5200005,47.3560032 68.3439996,46.708 C68.1679987,46.0599968 68.0799996,45.240005 68.0799996,44.248 L68.0799996,44.248 Z" id="canou" fill="#E8E5FF"></path>
                </g>
                <path d="M103.894309,40.9288618 L104.859756,40.9288618 C104.805555,40.542681 104.69038,40.2022372 104.514228,39.9075203 C104.338075,39.6128034 104.117888,39.3672097 103.853659,39.1707317 C103.58943,38.9742538 103.287942,38.8252038 102.949187,38.7235772 C102.610432,38.6219507 102.251357,38.5711382 101.871951,38.5711382 C101.316393,38.5711382 100.823512,38.6710695 100.393293,38.870935 C99.9630737,39.0708005 99.6039987,39.3434942 99.3160569,39.6890244 C99.0281151,40.0345546 98.8096213,40.4393608 98.6605691,40.9034553 C98.5115169,41.3675497 98.4369919,41.8638185 98.4369919,42.3922764 C98.4369919,42.9207343 98.5064356,43.4153093 98.6453252,43.8760163 C98.7842148,44.3367232 98.992546,44.7364482 99.2703252,45.0752033 C99.5481044,45.4139583 99.8970169,45.6798771 100.317073,45.8729675 C100.737129,46.0660579 101.228317,46.1626016 101.79065,46.1626016 C102.718839,46.1626016 103.450539,45.9085391 103.985772,45.4004065 C104.521005,44.8922739 104.836043,44.1808989 104.930894,43.2662602 L103.965447,43.2662602 C103.945122,43.5643646 103.884147,43.8421396 103.78252,44.0995935 C103.680894,44.3570474 103.540313,44.5789286 103.360772,44.7652439 C103.181232,44.9515592 102.96782,45.0972217 102.720528,45.2022358 C102.473237,45.3072498 102.190381,45.3597561 101.871951,45.3597561 C101.438345,45.3597561 101.06572,45.2784561 100.754065,45.1158537 C100.44241,44.9532512 100.186654,44.7347575 99.9867886,44.4603659 C99.7869231,44.1859742 99.6395669,43.8641617 99.5447154,43.4949187 C99.449864,43.1256757 99.402439,42.7344194 99.402439,42.3211382 C99.402439,41.9417325 99.449864,41.5758825 99.5447154,41.2235772 C99.6395669,40.871272 99.7869231,40.5579282 99.9867886,40.2835366 C100.186654,40.009145 100.440717,39.7906512 100.748984,39.6280488 C101.057251,39.4654463 101.428182,39.3841463 101.861789,39.3841463 C102.369921,39.3841463 102.808602,39.5128713 103.177846,39.7703252 C103.547089,40.0277791 103.785907,40.4139541 103.894309,40.9288618 L103.894309,40.9288618 Z M109.880081,43.0020325 L111.109756,39.6178862 L111.130081,39.6178862 L112.339431,43.0020325 L109.880081,43.0020325 Z M110.601626,38.7439024 L107.776423,46 L108.762195,46 L109.575203,43.8150407 L112.644309,43.8150407 L113.436992,46 L114.504065,46 L111.668699,38.7439024 L110.601626,38.7439024 Z M117.705285,38.7439024 L117.705285,46 L118.619919,46 L118.619919,40.1768293 L118.640244,40.1768293 L122.430894,46 L123.487805,46 L123.487805,38.7439024 L122.573171,38.7439024 L122.573171,44.6280488 L122.552846,44.6280488 L118.731707,38.7439024 L117.705285,38.7439024 Z M130.408537,46 L132.989837,38.7439024 L131.98374,38.7439024 L129.890244,45.0345528 L129.869919,45.0345528 L127.796748,38.7439024 L126.760163,38.7439024 L129.310976,46 L130.408537,46 Z M137.044715,43.0020325 L138.27439,39.6178862 L138.294715,39.6178862 L139.504065,43.0020325 L137.044715,43.0020325 Z M137.76626,38.7439024 L134.941057,46 L135.926829,46 L136.739837,43.8150407 L139.808943,43.8150407 L140.601626,46 L141.668699,46 L138.833333,38.7439024 L137.76626,38.7439024 Z M149.077236,40.8678862 L149.99187,40.8678862 C149.97832,40.4681552 149.902101,40.1243239 149.763211,39.8363821 C149.624322,39.5484403 149.434622,39.3096215 149.194106,39.1199187 C148.95359,38.9302159 148.674121,38.7913284 148.355691,38.703252 C148.037261,38.6151757 147.691736,38.5711382 147.319106,38.5711382 C146.987126,38.5711382 146.663619,38.613482 146.348577,38.6981707 C146.033535,38.7828595 145.752373,38.9115845 145.505081,39.0843496 C145.25779,39.2571147 145.059621,39.4773022 144.910569,39.7449187 C144.761517,40.0125352 144.686992,40.3292665 144.686992,40.695122 C144.686992,41.0271019 144.753048,41.3031832 144.885163,41.523374 C145.017277,41.7435648 145.193427,41.9231023 145.413618,42.0619919 C145.633809,42.2008815 145.88279,42.312669 146.160569,42.3973577 C146.438348,42.4820465 146.721205,42.5565715 147.009146,42.620935 C147.297088,42.6852984 147.579944,42.7479672 147.857724,42.8089431 C148.135503,42.869919 148.384484,42.9495253 148.604675,43.0477642 C148.824866,43.1460032 149.001016,43.2730345 149.13313,43.4288618 C149.265245,43.5846891 149.331301,43.7879391 149.331301,44.0386179 C149.331301,44.3028468 149.277101,44.5196468 149.168699,44.6890244 C149.060298,44.8584019 148.918023,44.9922082 148.74187,45.0904472 C148.565717,45.1886861 148.367549,45.2581299 148.147358,45.2987805 C147.927167,45.3394311 147.708673,45.3597561 147.49187,45.3597561 C147.220866,45.3597561 146.956641,45.3258811 146.699187,45.2581301 C146.441733,45.1903791 146.216464,45.0853666 146.023374,44.9430894 C145.830284,44.8008123 145.674459,44.619581 145.555894,44.3993902 C145.43733,44.1791994 145.378049,43.9166682 145.378049,43.6117886 L144.463415,43.6117886 C144.463415,44.0521702 144.543021,44.433264 144.702236,44.7550813 C144.861451,45.0768986 145.078251,45.3411236 145.352642,45.5477642 C145.627034,45.7544048 145.945459,45.9085361 146.307927,46.0101626 C146.670395,46.1117891 147.054876,46.1626016 147.461382,46.1626016 C147.793362,46.1626016 148.127031,46.1236454 148.462398,46.0457317 C148.797766,45.967818 149.100947,45.8424805 149.371951,45.6697154 C149.642955,45.4969504 149.864837,45.2733754 150.037602,44.9989837 C150.210367,44.7245921 150.296748,44.3943109 150.296748,44.0081301 C150.296748,43.6490497 150.230692,43.3509497 150.098577,43.1138211 C149.966463,42.8766926 149.790313,42.6802176 149.570122,42.5243902 C149.349931,42.3685629 149.10095,42.2449192 148.823171,42.1534553 C148.545392,42.0619914 148.262535,41.9823852 147.974593,41.9146341 C147.686652,41.8468831 147.403795,41.7842144 147.126016,41.726626 C146.848237,41.6690377 146.599256,41.5962064 146.379065,41.5081301 C146.158874,41.4200538 145.982724,41.3065725 145.85061,41.1676829 C145.718495,41.0287933 145.652439,40.8475621 145.652439,40.6239837 C145.652439,40.3868552 145.69817,40.1886864 145.789634,40.0294715 C145.881098,39.8702567 146.003048,39.7432254 146.155488,39.648374 C146.307928,39.5535226 146.482384,39.4857726 146.678862,39.445122 C146.87534,39.4044713 147.075202,39.3841463 147.278455,39.3841463 C147.779813,39.3841463 148.191394,39.5010151 148.513211,39.7347561 C148.835029,39.9684971 149.023035,40.3462034 149.077236,40.8678862 L149.077236,40.8678862 Z M160.936992,39.5569106 L160.936992,46 L161.902439,46 L161.902439,39.5569106 L164.321138,39.5569106 L164.321138,38.7439024 L158.518293,38.7439024 L158.518293,39.5569106 L160.936992,39.5569106 Z M168.182927,42.3719512 C168.182927,42.0060957 168.230352,41.645327 168.325203,41.2896341 C168.420055,40.9339413 168.569105,40.6138226 168.772358,40.3292683 C168.975611,40.044714 169.236448,39.8160578 169.554878,39.6432927 C169.873308,39.4705276 170.252708,39.3841463 170.693089,39.3841463 C171.133471,39.3841463 171.512871,39.4705276 171.831301,39.6432927 C172.149731,39.8160578 172.410568,40.044714 172.613821,40.3292683 C172.817074,40.6138226 172.966124,40.9339413 173.060976,41.2896341 C173.155827,41.645327 173.203252,42.0060957 173.203252,42.3719512 C173.203252,42.7378067 173.155827,43.0985755 173.060976,43.4542683 C172.966124,43.8099611 172.817074,44.1300799 172.613821,44.4146341 C172.410568,44.6991884 172.149731,44.9278447 171.831301,45.1006098 C171.512871,45.2733748 171.133471,45.3597561 170.693089,45.3597561 C170.252708,45.3597561 169.873308,45.2733748 169.554878,45.1006098 C169.236448,44.9278447 168.975611,44.6991884 168.772358,44.4146341 C168.569105,44.1300799 168.420055,43.8099611 168.325203,43.4542683 C168.230352,43.0985755 168.182927,42.7378067 168.182927,42.3719512 L168.182927,42.3719512 Z M167.21748,42.3719512 C167.21748,42.8665336 167.290311,43.3424774 167.435976,43.7997967 C167.58164,44.2571161 167.800134,44.6619224 168.091463,45.0142276 C168.382793,45.3665329 168.745255,45.6460017 169.178862,45.8526423 C169.612468,46.0592829 170.117206,46.1626016 170.693089,46.1626016 C171.268973,46.1626016 171.773711,46.0592829 172.207317,45.8526423 C172.640924,45.6460017 173.003386,45.3665329 173.294715,45.0142276 C173.586045,44.6619224 173.804539,44.2571161 173.950203,43.7997967 C174.095868,43.3424774 174.168699,42.8665336 174.168699,42.3719512 C174.168699,41.8773688 174.095868,41.4014251 173.950203,40.9441057 C173.804539,40.4867863 173.586045,40.0819801 173.294715,39.7296748 C173.003386,39.3773695 172.640924,39.096207 172.207317,38.8861789 C171.773711,38.6761507 171.268973,38.5711382 170.693089,38.5711382 C170.117206,38.5711382 169.612468,38.6761507 169.178862,38.8861789 C168.745255,39.096207 168.382793,39.3773695 168.091463,39.7296748 C167.800134,40.0819801 167.58164,40.4867863 167.435976,40.9441057 C167.290311,41.4014251 167.21748,41.8773688 167.21748,42.3719512 L167.21748,42.3719512 Z M178.406504,42.3719512 C178.406504,42.0060957 178.453929,41.645327 178.54878,41.2896341 C178.643632,40.9339413 178.792682,40.6138226 178.995935,40.3292683 C179.199188,40.044714 179.460026,39.8160578 179.778455,39.6432927 C180.096885,39.4705276 180.476285,39.3841463 180.916667,39.3841463 C181.357048,39.3841463 181.736448,39.4705276 182.054878,39.6432927 C182.373308,39.8160578 182.634145,40.044714 182.837398,40.3292683 C183.040651,40.6138226 183.189701,40.9339413 183.284553,41.2896341 C183.379404,41.645327 183.426829,42.0060957 183.426829,42.3719512 C183.426829,42.7378067 183.379404,43.0985755 183.284553,43.4542683 C183.189701,43.8099611 183.040651,44.1300799 182.837398,44.4146341 C182.634145,44.6991884 182.373308,44.9278447 182.054878,45.1006098 C181.736448,45.2733748 181.357048,45.3597561 180.916667,45.3597561 C180.476285,45.3597561 180.096885,45.2733748 179.778455,45.1006098 C179.460026,44.9278447 179.199188,44.6991884 178.995935,44.4146341 C178.792682,44.1300799 178.643632,43.8099611 178.54878,43.4542683 C178.453929,43.0985755 178.406504,42.7378067 178.406504,42.3719512 L178.406504,42.3719512 Z M177.441057,42.3719512 C177.441057,42.8665336 177.513888,43.3424774 177.659553,43.7997967 C177.805218,44.2571161 178.023711,44.6619224 178.315041,45.0142276 C178.60637,45.3665329 178.968833,45.6460017 179.402439,45.8526423 C179.836046,46.0592829 180.340783,46.1626016 180.916667,46.1626016 C181.49255,46.1626016 181.997288,46.0592829 182.430894,45.8526423 C182.864501,45.6460017 183.226963,45.3665329 183.518293,45.0142276 C183.809622,44.6619224 184.028116,44.2571161 184.17378,43.7997967 C184.319445,43.3424774 184.392276,42.8665336 184.392276,42.3719512 C184.392276,41.8773688 184.319445,41.4014251 184.17378,40.9441057 C184.028116,40.4867863 183.809622,40.0819801 183.518293,39.7296748 C183.226963,39.3773695 182.864501,39.096207 182.430894,38.8861789 C181.997288,38.6761507 181.49255,38.5711382 180.916667,38.5711382 C180.340783,38.5711382 179.836046,38.6761507 179.402439,38.8861789 C178.968833,39.096207 178.60637,39.3773695 178.315041,39.7296748 C178.023711,40.0819801 177.805218,40.4867863 177.659553,40.9441057 C177.513888,41.4014251 177.441057,41.8773688 177.441057,42.3719512 L177.441057,42.3719512 Z M188.071138,38.7439024 L188.071138,46 L192.878049,46 L192.878049,45.1869919 L189.036585,45.1869919 L189.036585,38.7439024 L188.071138,38.7439024 Z M196.221545,38.7439024 L196.221545,46 L197.186992,46 L197.186992,43.4593496 L198.396341,42.3313008 L201.018293,46 L202.237805,46 L199.056911,41.6707317 L202.115854,38.7439024 L200.865854,38.7439024 L197.186992,42.3617886 L197.186992,38.7439024 L196.221545,38.7439024 Z M205.54065,38.7439024 L205.54065,46 L206.506098,46 L206.506098,38.7439024 L205.54065,38.7439024 Z M212.278455,39.5569106 L212.278455,46 L213.243902,46 L213.243902,39.5569106 L215.662602,39.5569106 L215.662602,38.7439024 L209.859756,38.7439024 L209.859756,39.5569106 L212.278455,39.5569106 Z" id="CANVAS-TOOLKIT" fill-opacity="0.4" fill="#FFFFFF"></path>
            </g>
        </g>
    </g>
</svg>